<svg viewBox="0 0 209 58" xmlns="http://www.w3.org/2000/svg" xml:space="preserve" style="fill-rule:evenodd;clip-rule:evenodd;stroke-linejoin:round;stroke-miterlimit:2"><path style="fill:#5f9abf" d="M843.79 166.666H900v56.21h-56.21z" transform="matrix(.14607 0 0 .14607 -123.248 -16.134)"/><path style="fill:#afcbe2" d="M843.79 166.666H900v56.21h-56.21z" transform="matrix(.14607 0 0 .14607 -123.248 8.497)"/><path style="fill:#afcbe2" d="M843.79 166.666H900v56.21h-56.21z" transform="matrix(.14607 0 0 .14607 -123.248 16.707)"/><path style="fill:#afcbe2" d="M843.79 166.666H900v56.21h-56.21z" transform="matrix(.14607 0 0 .14607 -115.038 16.707)"/><path style="fill:#afcbe2" d="M843.79 166.666H900v56.21h-56.21z" transform="matrix(.14607 0 0 .14607 -123.248 24.917)"/><path style="fill:#5f9abf" d="M843.79 166.666H900v56.21h-56.21z" transform="matrix(.14607 0 0 .14607 -115.038 24.917)"/><path style="fill:#afcbe2" d="M843.79 166.666H900v56.21h-56.21z" transform="matrix(.14607 0 0 .14607 -123.248 -7.924)"/><path style="fill:#5f9abf" d="M843.79 166.666H900v56.21h-56.21z" transform="matrix(.14607 0 0 .14607 -123.248 -24.344)"/><path style="fill:#2a526a" d="M843.79 166.666H900v56.21h-56.21z" transform="matrix(.14607 0 0 .14607 -123.248 .286)"/><path style="fill:#5f9abf" d="M843.79 166.666H900v56.21h-56.21z" transform="matrix(.14607 0 0 .14607 -115.038 -16.134)"/><path style="fill:#2a526a" d="M843.79 166.666H900v56.21h-56.21z" transform="matrix(.14607 0 0 .14607 -115.038 -7.924)"/><path style="fill:#afcbe2" d="M843.79 166.666H900v56.21h-56.21z" transform="matrix(.14607 0 0 .14607 -115.038 -24.344)"/><path style="fill:#0094da" d="M843.79 166.666H900v56.21h-56.21z" transform="matrix(.14607 0 0 .14607 -115.038 .286)"/><path style="fill:#2a526a" d="M843.79 166.666H900v56.21h-56.21z" transform="matrix(.14607 0 0 .14607 -115.038 8.497)"/><path style="fill:#afcbe2" d="M843.79 166.666H900v56.21h-56.21z" transform="matrix(.14607 0 0 .14607 -106.828 -16.134)"/><path style="fill:#2a526a" d="M843.79 166.666H900v56.21h-56.21z" transform="matrix(.14607 0 0 .14607 -106.828 8.497)"/><path style="fill:#5f9abf" d="M843.79 166.666H900v56.21h-56.21z" transform="matrix(.14607 0 0 .14607 -106.828 16.707)"/><path style="fill:#afcbe2" d="M843.79 166.666H900v56.21h-56.21z" transform="matrix(.14607 0 0 .14607 -98.617 16.707)"/><path style="fill:#5f9abf" d="M843.79 166.666H900v56.21h-56.21z" transform="matrix(.14607 0 0 .14607 -106.828 24.917)"/><path style="fill:#5f9abf" d="M843.79 166.666H900v56.21h-56.21z" transform="matrix(.14607 0 0 .14607 -98.617 24.917)"/><path style="fill:#afcbe2" d="M843.79 166.666H900v56.21h-56.21z" transform="matrix(.14607 0 0 .14607 -106.828 -7.924)"/><path style="fill:#5f9abf" d="M843.79 166.666H900v56.21h-56.21z" transform="matrix(.14607 0 0 .14607 -106.828 -24.344)"/><path style="fill:#2a526a" d="M843.79 166.666H900v56.21h-56.21z" transform="matrix(.14607 0 0 .14607 -106.828 .286)"/><path style="fill:#2a526a" d="M843.79 166.666H900v56.21h-56.21z" transform="matrix(.14607 0 0 .14607 -98.617 -16.134)"/><path style="fill:#afcbe2" d="M843.79 166.666H900v56.21h-56.21z" transform="matrix(.14607 0 0 .14607 -98.617 -7.924)"/><path style="fill:#afcbe2" d="M843.79 166.666H900v56.21h-56.21z" transform="matrix(.14607 0 0 .14607 -98.617 -24.344)"/><path style="fill:#afcbe2" d="M843.79 166.666H900v56.21h-56.21z" transform="matrix(.14607 0 0 .14607 -98.617 .286)"/><path style="fill:#2a526a" d="M843.79 166.666H900v56.21h-56.21z" transform="matrix(.14607 0 0 .14607 -98.617 8.497)"/><path style="fill:#afcbe2" d="M843.79 166.666H900v56.21h-56.21z" transform="matrix(.14607 0 0 .14607 -90.407 -16.134)"/><path style="fill:#afcbe2" d="M843.79 166.666H900v56.21h-56.21z" transform="matrix(.14607 0 0 .14607 -90.407 8.497)"/><path style="fill:#5f9abf" d="M843.79 166.666H900v56.21h-56.21z" transform="matrix(.14607 0 0 .14607 -90.407 16.707)"/><path style="fill:#afcbe2" d="M843.79 166.666H900v56.21h-56.21z" transform="matrix(.14607 0 0 .14607 -82.197 16.707)"/><path style="fill:#5f9abf" d="M843.79 166.666H900v56.21h-56.21z" transform="matrix(.14607 0 0 .14607 -90.407 24.917)"/><path style="fill:#5f9abf" d="M843.79 166.666H900v56.21h-56.21z" transform="matrix(.14607 0 0 .14607 -82.197 24.917)"/><path style="fill:#5f9abf" d="M843.79 166.666H900v56.21h-56.21z" transform="matrix(.14607 0 0 .14607 -90.407 -7.924)"/><path style="fill:#5f9abf" d="M843.79 166.666H900v56.21h-56.21z" transform="matrix(.14607 0 0 .14607 -90.407 -24.344)"/><path style="fill:#5f9abf" d="M843.79 166.666H900v56.21h-56.21z" transform="matrix(.14607 0 0 .14607 -90.407 .286)"/><path style="fill:#afcbe2" d="M843.79 166.666H900v56.21h-56.21z" transform="matrix(.14607 0 0 .14607 -82.197 -16.134)"/><path style="fill:#afcbe2" d="M843.79 166.666H900v56.21h-56.21z" transform="matrix(.14607 0 0 .14607 -82.197 -7.924)"/><path style="fill:#5f9abf" d="M843.79 166.666H900v56.21h-56.21z" transform="matrix(.14607 0 0 .14607 -82.197 -24.344)"/><path style="fill:#5f9abf" d="M843.79 166.666H900v56.21h-56.21z" transform="matrix(.14607 0 0 .14607 -82.197 .286)"/><path style="fill:#afcbe2" d="M843.79 166.666H900v56.21h-56.21z" transform="matrix(.14607 0 0 .14607 -82.197 8.497)"/><path style="fill:#5f9abf" d="M843.79 166.666H900v56.21h-56.21z" transform="matrix(.14607 0 0 .14607 -73.987 -16.134)"/><path style="fill:#afcbe2" d="M843.79 166.666H900v56.21h-56.21z" transform="matrix(.14607 0 0 .14607 -73.987 8.497)"/><path style="fill:#afcbe2" d="M843.79 166.666H900v56.21h-56.21z" transform="matrix(.14607 0 0 .14607 -73.987 16.707)"/><path style="fill:#afcbe2" d="M843.79 166.666H900v56.21h-56.21z" transform="matrix(.14607 0 0 .14607 -65.777 16.707)"/><path style="fill:#afcbe2" d="M843.79 166.666H900v56.21h-56.21z" transform="matrix(.14607 0 0 .14607 -73.987 24.917)"/><path style="fill:#afcbe2" d="M843.79 166.666H900v56.21h-56.21z" transform="matrix(.14607 0 0 .14607 -65.777 24.917)"/><path style="fill:#afcbe2" d="M843.79 166.666H900v56.21h-56.21z" transform="matrix(.14607 0 0 .14607 -73.987 -7.924)"/><path style="fill:#afcbe2" d="M843.79 166.666H900v56.21h-56.21z" transform="matrix(.14607 0 0 .14607 -73.987 -24.344)"/><path style="fill:#afcbe2" d="M843.79 166.666H900v56.21h-56.21z" transform="matrix(.14607 0 0 .14607 -73.987 .286)"/><path style="fill:#afcbe2" d="M843.79 166.666H900v56.21h-56.21z" transform="matrix(.14607 0 0 .14607 -65.777 -16.134)"/><path style="fill:#afcbe2" d="M843.79 166.666H900v56.21h-56.21z" transform="matrix(.14607 0 0 .14607 -65.777 -7.924)"/><path style="fill:#5f9abf" d="M843.79 166.666H900v56.21h-56.21z" transform="matrix(.14607 0 0 .14607 -65.777 -24.344)"/><path style="fill:#afcbe2" d="M843.79 166.666H900v56.21h-56.21z" transform="matrix(.14607 0 0 .14607 -65.777 .286)"/><path style="fill:#afcbe2" d="M843.79 166.666H900v56.21h-56.21z" transform="matrix(.14607 0 0 .14607 -65.777 8.497)"/><path style="fill:#5f9abf" d="M843.79 166.666H900v56.21h-56.21z" transform="matrix(.14607 0 0 .14607 -57.566 -16.134)"/><path style="fill:#afcbe2" d="M843.79 166.666H900v56.21h-56.21z" transform="matrix(.14607 0 0 .14607 -57.566 8.497)"/><path style="fill:#afcbe2" d="M843.79 166.666H900v56.21h-56.21z" transform="matrix(.14607 0 0 .14607 -57.566 16.707)"/><path style="fill:#5f9abf" d="M843.79 166.666H900v56.21h-56.21z" transform="matrix(.14607 0 0 .14607 -49.356 16.707)"/><path style="fill:#5f9abf" d="M843.79 166.666H900v56.21h-56.21z" transform="matrix(.14607 0 0 .14607 -57.566 24.917)"/><path style="fill:#5f9abf" d="M843.79 166.666H900v56.21h-56.21z" transform="matrix(.14607 0 0 .14607 -49.356 24.917)"/><path style="fill:#afcbe2" d="M843.79 166.666H900v56.21h-56.21z" transform="matrix(.14607 0 0 .14607 -57.566 -7.924)"/><path style="fill:#afcbe2" d="M843.79 166.666H900v56.21h-56.21z" transform="matrix(.14607 0 0 .14607 -57.566 -24.344)"/><path style="fill:#afcbe2" d="M843.79 166.666H900v56.21h-56.21z" transform="matrix(.14607 0 0 .14607 -57.566 .286)"/><path style="fill:#5f9abf" d="M843.79 166.666H900v56.21h-56.21z" transform="matrix(.14607 0 0 .14607 -49.356 -16.134)"/><path style="fill:#5f9abf" d="M843.79 166.666H900v56.21h-56.21z" transform="matrix(.14607 0 0 .14607 -49.356 -7.924)"/><path style="fill:#5f9abf" d="M843.79 166.666H900v56.21h-56.21z" transform="matrix(.14607 0 0 .14607 -49.356 -24.344)"/><path style="fill:#afcbe2" d="M843.79 166.666H900v56.21h-56.21z" transform="matrix(.14607 0 0 .14607 -49.356 .286)"/><path style="fill:#5f9abf" d="M843.79 166.666H900v56.21h-56.21z" transform="matrix(.14607 0 0 .14607 -49.356 8.497)"/><g><path d="M.578-.385H.184v-.037c0-.102.055-.145.185-.145h.209v-.1H.366c-.106 0-.157.01-.206.041-.073.046-.098.109-.098.249V0h.122v-.285h.394v-.1Z" style="fill:#fff;fill-rule:nonzero" transform="matrix(32.21858 0 0 32.21858 83.867 39.48)"/><path d="M.062-.667v.389c0 .112.017.172.061.215C.171-.016.226 0 .344 0h.158v-.1h-.14C.29-.1.243-.112.216-.138.193-.16.184-.203.184-.285v-.382H.062Z" style="fill:#fff;fill-rule:nonzero" transform="matrix(32.21858 0 0 32.21858 103.708 39.48)"/><path d="M.366-.674c-.22 0-.333.116-.333.342a.41.41 0 0 0 .061.23c.051.07.146.109.267.109.213 0 .323-.115.323-.338a.416.416 0 0 0-.057-.232C.576-.635.484-.674.366-.674Zm-.007.097c.133 0 .192.074.192.244 0 .17-.058.243-.192.243S.166-.165.166-.336c0-.065.01-.12.028-.155.028-.055.088-.086.165-.086Z" style="fill:#fff;fill-rule:nonzero" transform="matrix(32.21858 0 0 32.21858 120.166 39.48)"/><path d="M.366-.674c-.22 0-.333.116-.333.342a.41.41 0 0 0 .061.23c.051.07.146.109.267.109.213 0 .323-.115.323-.338a.416.416 0 0 0-.057-.232C.576-.635.484-.674.366-.674Zm-.007.097c.133 0 .192.074.192.244 0 .17-.058.243-.192.243S.166-.165.166-.336c0-.065.01-.12.028-.155.028-.055.088-.086.165-.086Z" style="fill:#fff;fill-rule:nonzero" transform="matrix(32.21858 0 0 32.21858 143.31 39.48)"/><path d="M.192-.27h.11c.143 0 .193.042.206.174l.006.064c.002.016.003.02.008.032h.132C.643-.025.642-.031.637-.102.631-.215.598-.269.515-.298A.18.18 0 0 0 .593-.34a.19.19 0 0 0 .055-.141.177.177 0 0 0-.071-.147C.538-.656.481-.667.383-.667H.07V0h.122v-.27Zm0-.1v-.197h.194c.044 0 .067.003.082.01.03.014.047.045.047.087 0 .035-.012.063-.033.08-.018.014-.046.02-.096.02H.192Z" style="fill:#fff;fill-rule:nonzero" transform="matrix(32.21858 0 0 32.21858 166.44 39.48)"/><path d="M.062 0h.302C.46 0 .5-.006.535-.025c.058-.03.092-.093.092-.169a.209.209 0 0 0-.058-.153C.531-.381.479-.393.373-.393H.302c-.097 0-.134-.024-.134-.085 0-.035.016-.064.041-.076a.25.25 0 0 1 .099-.013h.285v-.1h-.3a.356.356 0 0 0-.153.022c-.065.029-.105.097-.105.177 0 .059.024.111.065.143.035.026.087.038.168.038h.086c.045 0 .07.003.088.009.033.013.052.045.052.086 0 .034-.013.059-.038.075C.437-.105.409-.1.357-.1H.062V0Z" style="fill:#fff;fill-rule:nonzero" transform="matrix(32.21858 0 0 32.21858 188.738 39.48)"/><g><path d="M.304-.389v.1h.197V-.1H.373C.278-.1.236-.118.203-.171a.382.382 0 0 1-.036-.185c0-.067.017-.127.047-.161.031-.037.072-.05.157-.05h.252v-.1H.359c-.099 0-.162.015-.211.048-.076.053-.115.15-.115.289 0 .122.032.213.095.268C.181-.015.236 0 .354 0h.269v-.389H.304Z" style="fill:#2a526a;fill-rule:nonzero" transform="matrix(32.21858 0 0 32.21858 49.9 39.48)"/></g><g><path d="M409.609 1287.31h44.464" style="fill:none" transform="matrix(.29973 0 0 .42646 -47.404 -520.249)"/></g><g><path style="fill:#2a526a" d="M404.273 1283.56h55.136v7.5h-55.136z" transform="matrix(.15119 0 0 .42646 12.645 -520.249)"/></g></g></svg>